Coordinates
version=1
nRows=8
nColumns=40
inDegrees=yes

Units are S.I. units (second, meters, Newtons, ...)
Angles are in degrees.

endheader
time	pelvis_tilt	pelvis_list	pelvis_rotation	pelvis_tx	pelvis_ty	pelvis_tz	hip_flexion_r	hip_adduction_r	hip_rotation_r	knee_angle_r	knee_angle_r_beta	ankle_angle_r	subtalar_angle_r	mtp_angle_r	hip_flexion_l	hip_adduction_l	hip_rotation_l	knee_angle_l	knee_angle_l_beta	ankle_angle_l	subtalar_angle_l	mtp_angle_l	lumbar_extension	lumbar_bending	lumbar_rotation	arm_flex_r	arm_add_r	arm_rot_r	elbow_flex_r	pro_sup_r	wrist_flex_r	wrist_dev_r	arm_flex_l	arm_add_l	arm_rot_l	elbow_flex_l	pro_sup_l	wrist_flex_l	wrist_dev_l
     32.44000000	     -5.35285996	     -5.49766575	     -7.45435116	      1.03542157	      0.92959317	      0.42434863	     24.73085898	      1.08349107	    -13.81158950	      8.03739455	      8.03739455	      1.46929964	     11.48749779	      7.01453677	      5.94497037	     -7.14221526	    -13.16471151	     17.31899555	     17.31899555	     15.78796613	    -13.57114472	     -1.03025482	    -10.46512419	      5.56041627	      1.61263561	     -4.93640697	    -12.18352512	     -3.75116814	     30.83564238	     46.27808949	      0.00000000	      0.00000000	     17.23138404	    -20.13362731	    -14.65782902	     73.20162697	     47.44217114	      0.00000000	      0.00000000
     32.45385714	     -5.38351070	     -5.48004746	     -7.41400602	      1.03617566	      0.92868798	      0.42602143	     24.44725749	      1.30828441	    -14.11951273	      8.23739578	      8.23739578	      1.55784947	     11.33920389	      6.96212885	      5.48370122	     -7.17249862	    -13.14128559	     17.24473629	     17.24473629	     16.11845182	    -13.54228674	     -1.09202830	    -10.29539500	      5.66262520	      1.53066894	     -4.58137792	    -12.19244966	     -3.83826036	     30.97370209	     46.27998950	      0.00000000	      0.00000000	     17.52588990	    -20.08050231	    -14.56333261	     73.18423504	     47.43984303	      0.00000000	      0.00000000
     32.46771429	     -5.30700718	     -5.50716946	     -7.33825664	      1.03724330	      0.92789921	      0.42783239	     24.06536121	      1.48870219	    -14.19011941	      9.01027533	      9.01027533	      1.66200885	     10.84840774	      6.38878837	      4.86094406	     -7.24867801	    -13.12529736	     17.13721866	     17.13721866	     16.52741606	    -13.39434775	     -1.05809183	    -10.20894011	      5.81156589	      1.44361713	     -4.16890277	    -12.23826921	     -4.00234429	     31.14424532	     46.28542863	      0.00000000	      0.00000000	     17.74922466	    -20.04286959	    -14.40027116	     72.96255986	     47.43044481	      0.00000000	      0.00000000
     32.48157143	     -5.29751437	     -5.42378132	     -7.19476129	      1.03850676	      0.92683155	      0.42975792	     23.90311360	      1.52236376	    -13.66301224	     10.35302512	     10.35302512	      1.45028012	      9.41858822	      4.24529577	      4.38335232	     -7.25066346	    -13.13370067	     17.16480616	     17.16480616	     17.13923179	    -13.03367793	     -0.65856048	     -9.95593483	      5.85468588	      1.37200123	     -3.75574964	    -12.22609711	     -4.45151240	     31.39931507	     46.30231373	      0.00000000	      0.00000000	     18.03322678	    -19.97431566	    -13.96805928	     72.35265495	     47.40331195	      0.00000000	      0.00000000
     32.49542857	     -5.12113813	     -5.40645338	     -7.00066332	      1.04000245	      0.92586538	      0.43169698	     23.54602890	      1.55862211	    -13.03414990	     11.89240108	     11.89240108	      1.38309877	      8.00510973	      2.34470734	      3.77230233	     -7.31310602	    -13.04747640	     17.31248842	     17.31248842	     17.75945014	    -12.80753585	     -0.30294959	     -9.89044595	      5.99036751	      1.26417566	     -3.30483267	    -12.28327374	     -4.82796853	     31.69961502	     46.31360237	      0.00000000	      0.00000000	     18.18210676	    -19.88897448	    -13.60466483	     71.90105990	     47.37990347	      0.00000000	      0.00000000
     32.50928571	     -4.94246722	     -5.40929849	     -6.71801344	      1.04172733	      0.92482719	      0.43376456	     23.17482984	      1.62224774	    -12.18270170	     13.46730683	     13.46730683	      1.39812322	      6.33934872	      0.48635044	      3.23905676	     -7.43964090	    -12.90102618	     17.61983247	     17.61983247	     18.44070387	    -12.59735398	      0.12656380	     -9.78342312	      6.12764987	      1.13573573	     -2.82946298	    -12.36995897	     -5.23700934	     32.06201345	     46.32388529	      0.00000000	      0.00000000	     18.21512362	    -19.76679732	    -13.20063854	     71.35502724	     47.35135095	      0.00000000	      0.00000000
     32.52314286	     -4.63025865	     -5.47980713	     -6.38918505	      1.04376183	      0.92397645	      0.43596684	     22.42486597	      1.84977336	    -11.06101299	     14.48120128	     14.48120128	      0.66474493	      4.20720280	     -3.42343716	      2.70775664	     -7.70880404	    -12.80031664	     18.30735641	     18.30735641	     19.73837455	    -12.00181572	      1.86673152	     -9.80566185	      6.36725116	      1.42771156	     -2.66243970	    -12.40422969	     -6.72752140	     32.73538483	     46.36630346	      0.00000000	      0.00000000	     18.63975568	    -19.52136525	    -12.15738480	     70.27134853	     47.29960032	      0.00000000	      0.00000000
     32.53700000	     -4.37220545	     -5.45836255	     -6.03343175	      1.04574731	      0.92310713	      0.43808612	     22.08494474	      1.83849117	    -10.35094639	     16.09817741	     16.09817741	      1.40413666	      3.04568172	     -3.89718261	      2.26120499	     -7.85827292	    -12.51298568	     18.91020542	     18.91020542	     20.11774886	    -12.05986331	      1.83704269	     -9.74663731	      6.50691557	      1.17641428	     -1.99450612	    -12.55426683	     -6.95501004	     33.08322084	     46.36722906	      0.00000000	      0.00000000	     18.36217267	    -19.36102458	    -11.96769415	     69.75967626	     47.28139066	      0.00000000	      0.00000000
